<svg version="1.0" xmlns="http://www.w3.org/2000/svg" width="866.000000pt" height="650.000000pt" viewBox="0 0 866.000000 650.000000" preserveAspectRatio="xMidYMid meet">
<g transform="translate(0.000000,650.000000) scale(0.100000,-0.100000)" stroke="none">
<g fill="#0C5BA8">
<path d="M718 4763 l-98 -4 0 -1079 0 -1080 383 0 384 0 6 227 c4 124 7 270 7
324 l0 97 263 4 c251 4 266 6 352 32 203 62 312 148 389 309 65 135 80 221 73
432 -7 250 -46 366 -169 500 -71 77 -143 122 -261 164 -183 64 -261 72 -772
75 -253 2 -504 2 -557 -1z m885 -617 c115 -8 182 -161 115 -263 -39 -58 -83
-76 -205 -81 l-103 -4 0 180 0 179 73 -4 c39 -2 94 -5 120 -7z"/>
<path d="M2760 3678 l0 -1081 167 6 c91 4 258 7 370 7 l203 0 2 535 3 536 304
-508 c167 -279 315 -523 328 -540 l24 -33 153 0 c84 0 255 3 381 7 l228 6 -4
1069 c-2 587 -4 1068 -4 1069 0 0 -165 3 -367 6 l-368 6 0 -557 c0 -306 -3
-556 -7 -556 -5 0 -23 26 -40 58 -49 85 -135 232 -423 722 -54 91 -111 188
-127 215 -16 28 -38 65 -48 82 l-20 33 -377 0 -378 0 0 -1082z"/>
<path d="M5490 4753 c0 -9 -25 -160 -71 -423 -16 -96 -47 -276 -69 -400 -21
-124 -50 -292 -65 -375 -14 -82 -46 -267 -70 -410 -25 -143 -55 -322 -68 -397
l-24 -138 379 0 c208 0 378 3 378 6 0 5 114 1079 126 1182 3 30 8 52 10 49 3
-2 45 -157 94 -343 50 -187 100 -377 113 -424 13 -47 46 -169 73 -272 27 -104
51 -188 54 -188 5 0 110 180 119 204 2 6 39 72 81 146 42 74 109 194 149 265
40 72 81 144 90 160 10 17 51 91 91 165 40 74 90 164 110 200 20 36 53 94 73
130 108 199 220 396 228 405 6 6 6 -1 0 -20 -13 -42 -70 -242 -100 -358 l-27
-99 27 -251 c71 -659 99 -933 99 -949 0 -17 24 -18 375 -18 206 0 375 2 375 5
0 2 -9 62 -20 132 -11 71 -32 200 -45 288 -14 88 -30 187 -35 220 -6 33 -23
148 -40 255 -17 107 -34 222 -40 255 -5 33 -21 132 -34 220 -50 317 -77 492
-91 580 -8 50 -17 113 -21 140 -4 28 -10 52 -14 55 -5 3 -185 3 -401 0 l-392
-5 -13 -40 c-7 -22 -40 -139 -74 -260 -72 -256 -172 -611 -201 -708 -21 -73
-33 -78 -43 -21 -4 19 -25 99 -47 177 -22 78 -51 183 -64 232 -14 50 -38 137
-54 195 -16 58 -46 166 -66 240 -20 74 -41 150 -47 168 l-10 32 -399 0 c-219
0 -399 -3 -399 -7z"/>
</g>
<polygon points="7400,4720 7800,4720 7200,3800" fill="#7CB342"/>
<g fill="#000000">
<path d="M620 1995 l0 -235 25 0 c25 0 25 0 25 95 l0 95 83 0 c45 0 93 6 106
13 40 20 64 62 69 119 3 44 0 59 -20 88 -31 46 -72 59 -190 59 l-98 1 0 -235z
m236 149 c23 -34 20 -93 -6 -118 -16 -16 -33 -20 -97 -20 l-78 -1 -3 83 -3 82
85 0 c81 0 86 -1 102 -26z"/>
<path d="M2490 2150 c0 -44 -3 -80 -7 -80 -3 0 -14 7 -24 16 -10 9 -34 16 -54
16 -71 0 -113 -53 -122 -154 -13 -141 94 -246 181 -177 21 17 26 18 26 5 0
-10 9 -16 25 -16 l25 0 0 235 0 235 -25 0 -25 0 0 -80z m-48 -101 c62 -33 64
-219 3 -243 -75 -28 -127 48 -110 160 7 49 41 94 70 94 9 0 25 -5 37 -11z"/>
<path d="M2930 1995 l0 -235 25 0 25 0 0 235 0 235 -25 0 -25 0 0 -235z"/>
<path d="M3860 1995 l0 -235 25 0 25 0 0 175 c0 96 3 175 8 175 4 0 52 -78
107 -172 95 -164 102 -173 133 -176 l32 -3 -2 233 -3 233 -25 0 -25 0 -5 -177
-5 -177 -103 180 c-97 167 -106 179 -133 179 l-29 0 0 -235z"/>
<path d="M4880 2195 c0 -32 3 -36 23 -33 17 2 22 10 22 33 0 23 -5 31 -22 33
-20 3 -23 -1 -23 -33z"/>
<path d="M5960 1996 l0 -236 25 0 25 0 -2 233 -3 232 -22 3 -23 3 0 -235z"/>
<path d="M6250 1995 l0 -235 25 0 25 0 2 191 3 191 55 -189 c53 -178 57 -188
82 -191 24 -3 27 2 48 70 12 40 38 125 58 188 l37 115 3 -187 2 -188 25 0 25
0 0 236 0 235 -37 -3 -37 -3 -32 -105 c-18 -58 -44 -145 -59 -194 -14 -48 -28
-86 -31 -83 -2 2 -20 60 -40 128 -19 68 -44 154 -55 192 l-20 67 -39 0 -40 0
0 -235z"/>
<path d="M7230 2150 c0 -44 -3 -80 -7 -80 -3 0 -15 8 -25 17 -23 21 -80 20
-113 -1 -53 -35 -79 -145 -55 -231 25 -89 113 -132 174 -84 21 17 26 18 26 5
0 -10 9 -16 25 -16 l25 0 0 235 0 235 -25 0 c-25 0 -25 -1 -25 -80z m-49 -100
c63 -34 66 -220 4 -244 -33 -12 -64 -5 -83 19 -42 53 -39 169 4 212 25 25 45
29 75 13z"/>
<path d="M7990 2195 c0 -31 3 -35 25 -35 22 0 25 4 25 35 0 31 -3 35 -25 35
-22 0 -25 -4 -25 -35z"/>
<path d="M1083 2100 c-43 -10 -62 -27 -84 -75 -23 -50 -24 -141 -3 -195 42
-104 199 -106 241 -2 13 32 13 32 -17 32 -16 0 -30 -4 -30 -10 0 -22 -41 -50
-73 -50 -40 0 -74 32 -83 78 l-6 32 111 0 111 0 0 35 c0 104 -77 176 -167 155z
m69 -51 c16 -9 48 -64 48 -84 0 -3 -38 -5 -85 -5 -47 0 -85 2 -85 5 0 3 7 21
15 40 19 48 65 66 107 44z"/>
<path d="M1386 2087 c-23 -23 -25 -23 -29 -6 -3 11 -14 19 -26 19 -20 0 -21
-4 -21 -170 l0 -170 24 0 c23 0 24 1 28 126 4 117 6 128 27 145 15 12 31 17
46 13 18 -4 25 -1 30 16 8 25 0 35 -32 44 -17 5 -29 1 -47 -17z"/>
<path d="M1615 2103 c-11 -3 -30 -14 -42 -26 l-23 -20 0 21 c0 17 -6 22 -25
22 l-25 0 0 -170 0 -170 25 0 25 0 1 103 c0 56 5 118 12 137 21 59 88 74 108
23 5 -13 9 -78 9 -144 l0 -119 25 0 25 0 0 114 c0 133 7 160 49 174 25 9 34 8
50 -6 19 -15 21 -30 22 -149 l1 -133 24 0 24 0 0 144 c0 136 -1 146 -22 170
-21 23 -45 30 -91 27 -10 -1 -29 -12 -42 -25 -23 -24 -25 -24 -35 -7 -7 14
-68 47 -74 40 -1 -1 -10 -3 -21 -6z"/>
<path d="M2045 2091 c-49 -22 -75 -65 -82 -134 -7 -66 10 -129 46 -169 36 -41
109 -50 158 -19 50 31 68 74 68 162 0 64 -4 81 -25 112 -23 33 -80 67 -113 67
-6 0 -30 -9 -52 -19z m98 -52 c33 -25 50 -86 41 -146 -18 -124 -151 -124 -169
-1 -12 83 31 168 85 168 10 0 29 -9 43 -21z"/>
<path d="M2687 2095 c-39 -13 -61 -35 -73 -68 -7 -21 -6 -22 21 -31 16 -5 23
0 32 23 22 60 123 48 136 -16 3 -15 4 -29 3 -31 -2 -1 -34 -9 -72 -16 -91 -18
-102 -23 -119 -57 -24 -45 -19 -87 14 -120 36 -35 88 -39 143 -9 30 16 37 17
42 5 3 -8 16 -15 28 -15 l23 0 -5 144 c-6 161 -12 177 -79 196 -45 12 -47 12
-94 -5z m117 -212 c-8 -46 -36 -79 -72 -86 -59 -11 -98 32 -68 77 10 16 31 27
63 34 84 17 85 17 77 -25z"/>
<path d="M3136 2100 c-37 -11 -62 -35 -74 -70 -9 -25 -8 -28 15 -33 19 -3 26
1 33 19 5 12 19 28 31 34 28 16 86 4 99 -20 10 -19 14 -60 6 -60 -25 0 -153
-33 -164 -43 -44 -36 -44 -125 -1 -159 29 -24 96 -23 137 2 39 24 42 24 42 5
0 -9 9 -15 23 -15 l22 0 -3 143 c-4 161 -11 180 -69 196 -44 12 -57 13 -97 1z
m114 -205 c0 -71 -74 -124 -125 -91 -25 17 -32 49 -16 75 5 7 31 19 57 27 74
19 84 18 84 -11z"/>
<path d="M3493 2101 c-13 -3 -32 -14 -44 -24 -20 -18 -21 -18 -26 2 -3 12 -14
21 -24 21 -18 0 -19 -10 -19 -170 l0 -170 24 0 c24 0 24 0 28 125 3 109 6 127
23 144 35 33 62 35 90 7 24 -24 25 -30 25 -151 l0 -125 25 0 25 0 0 135 c0 77
-5 144 -11 158 -17 37 -74 61 -116 48z"/>
<path d="M4352 2100 c-40 -9 -68 -33 -80 -70 -9 -25 -8 -28 14 -33 17 -3 25 1
30 15 15 49 110 62 134 18 10 -19 14 -60 6 -60 -3 0 -37 -7 -78 -15 -79 -17
-113 -41 -123 -85 -8 -35 16 -95 43 -109 32 -17 94 -13 130 9 39 24 42 24 42
5 0 -9 9 -15 23 -15 22 0 22 1 19 132 -3 136 -13 183 -41 197 -27 14 -84 19
-119 11z m108 -205 c0 -71 -74 -124 -125 -91 -17 11 -25 26 -25 46 0 33 6 38
69 55 71 20 81 19 81 -10z"/>
<path d="M4658 2103 c-45 -7 -78 -46 -78 -93 0 -53 29 -83 100 -104 63 -19 80
-31 80 -60 0 -33 -19 -46 -67 -46 -38 0 -46 4 -61 30 -17 29 -62 43 -62 20 0
-21 30 -69 52 -84 46 -33 153 -12 178 33 14 27 13 94 -2 114 -7 10 -47 30 -88
45 -62 23 -76 32 -78 52 -8 53 73 69 109 21 14 -19 27 -27 40 -24 22 6 23 13
8 47 -16 34 -77 57 -131 49z"/>
<path d="M5086 2100 c-67 -21 -100 -78 -100 -175 1 -120 53 -180 147 -172 81
7 127 68 127 171 0 127 -78 205 -174 176z m75 -57 c36 -21 53 -70 47 -135 -6
-56 -34 -101 -68 -106 -69 -11 -100 31 -100 133 0 60 3 69 29 96 34 33 51 36
92 12z"/>
<path d="M5721 2100 c-37 -9 -75 -43 -85 -76 -5 -17 -2 -22 18 -26 18 -4 27 1
35 19 29 64 141 47 141 -22 0 -21 -7 -25 -57 -35 -32 -6 -68 -14 -80 -17 -68
-16 -94 -122 -40 -169 35 -30 88 -32 140 -4 32 18 38 18 43 5 4 -8 16 -15 28
-15 21 0 21 3 18 132 -1 73 -7 145 -13 159 -17 43 -83 65 -148 49z m109 -199
c0 -40 -22 -79 -56 -97 -31 -17 -37 -17 -62 -4 -19 11 -28 25 -30 46 -4 37 9
49 68 62 68 15 80 14 80 -7z"/>
<path d="M6803 2100 c-40 -9 -60 -25 -79 -61 -18 -36 -18 -36 11 -41 18 -4 26
0 31 14 15 49 110 62 134 18 10 -19 14 -60 6 -60 -38 0 -156 -35 -173 -52 -45
-42 -35 -130 16 -158 31 -16 93 -12 129 10 39 24 42 24 42 5 0 -9 9 -15 23
-15 22 0 22 1 19 132 -2 73 -8 145 -13 159 -17 42 -83 65 -146 49z m107 -205
c0 -40 -26 -81 -61 -95 -44 -18 -83 2 -87 46 -4 37 9 49 68 62 73 16 80 15 80
-13z"/>
<path d="M7445 2101 c-49 -12 -71 -28 -85 -61 -14 -34 -14 -35 15 -44 16 -5
23 0 32 23 22 59 123 49 135 -14 6 -30 -7 -39 -72 -50 -93 -15 -130 -48 -130
-116 0 -20 10 -40 29 -60 36 -35 88 -39 143 -9 30 16 37 17 42 5 3 -8 16 -15
28 -15 l23 0 -5 144 c-4 123 -8 147 -24 165 -16 17 -78 43 -96 40 -3 -1 -18
-4 -35 -8z m99 -218 c-8 -46 -36 -79 -72 -86 -59 -11 -98 32 -68 77 10 16 31
27 63 34 84 17 85 17 77 -25z"/>
<path d="M7780 2099 c-13 -6 -33 -17 -42 -26 -17 -15 -18 -15 -18 5 0 17 -6
22 -25 22 l-25 0 2 -167 3 -168 25 -3 25 -3 1 118 c0 69 5 127 12 139 16 30
63 45 93 30 30 -15 36 -44 38 -178 l1 -108 26 0 26 0 -4 138 c-4 153 -12 176
-63 198 -39 16 -41 16 -75 3z"/>
<path d="M4880 1940 c0 -88 -1 -163 -2 -167 -2 -5 9 -9 25 -11 l27 -3 0 155
c0 85 -3 161 -6 170 -3 9 -15 16 -25 16 -18 0 -19 -10 -19 -160z"/>
<path d="M5320 1930 l0 -170 24 0 c24 0 24 0 28 124 3 141 15 166 73 166 57 0
65 -20 65 -163 l0 -127 25 0 25 0 0 135 c0 182 -11 205 -104 205 -28 0 -49 -7
-63 -19 -21 -20 -21 -20 -26 0 -3 11 -14 19 -26 19 -20 0 -21 -4 -21 -170z"/>
<path d="M7990 1930 l0 -170 25 0 25 0 0 170 0 170 -25 0 -25 0 0 -170z"/>
</g>
</g>
</svg>
